<svg width="13" height="13" viewBox="0 0 13 13" fill="none" xmlns="http://www.w3.org/2000/svg">
<path d="M8.73941 11.4728C8.17441 11.4734 7.57927 11.339 6.96399 11.0797C6.36372 10.8253 5.75834 10.476 5.16789 10.0516C4.58243 9.62223 4.01692 9.14283 3.48136 8.6184C2.95079 8.08397 2.47018 7.51948 2.04456 6.93993C1.61392 6.34039 1.26828 5.74076 1.02266 5.16103C0.762 4.5413 0.631359 3.94144 0.630755 3.37644C0.630339 2.98644 0.699943 2.61637 0.834575 2.27123C0.974195 1.91608 1.19884 1.58584 1.50354 1.30051C1.88813 0.920099 2.32793 0.729629 2.79793 0.729127C2.99293 0.728919 3.19298 0.773705 3.36306 0.853524C3.55816 0.943315 3.7233 1.07814 3.84349 1.25801L5.00524 2.89177C5.1104 3.03666 5.19054 3.17657 5.24569 3.31651C5.31085 3.46644 5.34601 3.61641 5.34617 3.76141C5.34637 3.95141 5.29157 4.13647 5.18676 4.31158C5.1119 4.44666 4.99706 4.59178 4.85221 4.73693L4.51259 5.0923C4.51761 5.10729 4.52262 5.11729 4.52763 5.12728C4.58774 5.23222 4.70793 5.41209 4.93822 5.68184C5.18352 5.96158 5.41379 6.21634 5.64404 6.45109C5.93935 6.74077 6.1846 6.97051 6.4148 7.16027C6.70006 7.39996 6.88519 7.51976 6.99524 7.57465L6.98527 7.59966L7.34989 7.23927C7.50472 7.0841 7.6546 6.96894 7.79952 6.89379C8.07434 6.72349 8.4243 6.69312 8.77446 6.83775C8.90452 6.89261 9.0446 6.96746 9.19471 7.0723L10.856 8.25052C11.0411 8.37532 11.1763 8.53518 11.2565 8.72509C11.3317 8.91502 11.3669 9.08998 11.3671 9.26498C11.3673 9.50498 11.3126 9.74504 11.2078 9.97015C11.103 10.1953 10.9733 10.3904 10.8084 10.5706C10.5238 10.8859 10.214 11.1112 9.85418 11.2566C9.50933 11.397 9.13441 11.4724 8.73941 11.4728ZM2.79873 1.47913C2.52373 1.47942 2.26886 1.59969 2.02411 1.83995C1.79434 2.0552 1.6346 2.29037 1.53487 2.54548C1.43015 2.80559 1.38044 3.08064 1.38075 3.37564C1.38125 3.84064 1.49179 4.34552 1.71235 4.86529C1.93791 5.39505 2.2535 5.94471 2.65409 6.49428C3.05467 7.04386 3.51025 7.57837 4.01079 8.08284C4.51131 8.5773 5.0518 9.03672 5.60724 9.44113C6.14766 9.83555 6.703 10.155 7.25325 10.3844C8.10864 10.7485 8.90873 10.8326 9.56843 10.5569C9.82332 10.4516 10.0481 10.2914 10.2529 10.0612C10.3678 9.93605 10.4576 9.80095 10.5325 9.64087C10.5923 9.5158 10.6222 9.38577 10.622 9.25577C10.622 9.17577 10.6069 9.09579 10.5668 9.00583C10.5517 8.97585 10.5217 8.92088 10.4266 8.85598L8.76536 7.67776C8.66528 7.60786 8.57523 7.55796 8.49019 7.52305C8.38014 7.47817 8.33509 7.43322 8.16521 7.5384C8.06526 7.5885 7.97534 7.6636 7.87545 7.76371L7.49585 8.13911C7.30105 8.32932 7.0011 8.37464 6.77101 8.28989L6.63594 8.23003C6.43083 8.12025 6.19065 7.95051 5.9254 7.72579C5.68519 7.52105 5.42493 7.28132 5.1096 6.97166C4.86433 6.72192 4.61905 6.45718 4.36373 6.16246C4.12844 5.88771 3.95819 5.65289 3.85298 5.458L3.79282 5.30807C3.7627 5.1931 3.75263 5.12811 3.75255 5.05811C3.75236 4.87811 3.81719 4.71804 3.94206 4.59291L4.31664 4.20251C4.41653 4.1024 4.49143 4.00732 4.54134 3.92227C4.58127 3.85722 4.59621 3.80221 4.59616 3.75221C4.59612 3.71221 4.58105 3.65222 4.55599 3.59225C4.5209 3.51229 4.46581 3.42235 4.39571 3.32742L3.23395 1.68866C3.18388 1.61872 3.12383 1.56878 3.04879 1.53386C2.96875 1.49895 2.88373 1.47904 2.79873 1.47913ZM6.98528 7.60466L6.90564 7.94474L7.04027 7.5946C7.01526 7.58963 6.99527 7.59465 6.98528 7.60466Z" fill="black"/>
<path d="M9.25755 4.97234C9.05255 4.97256 8.88237 4.80274 8.88215 4.59774C8.88196 4.41774 8.70156 4.04293 8.40122 3.72325C8.10588 3.40857 7.78068 3.22391 7.50568 3.22421C7.30068 3.22443 7.1305 3.05461 7.13028 2.84961C7.13006 2.64461 7.29988 2.47443 7.50488 2.47421C7.98988 2.47369 8.50016 2.73315 8.94567 3.20767C9.36114 3.65223 9.63172 4.19694 9.63215 4.59694C9.63237 4.80194 9.46255 4.97212 9.25755 4.97234Z" fill="black"/>
<path d="M11.0075 4.97047C10.8025 4.97069 10.6323 4.80087 10.6321 4.59587C10.6302 2.87087 9.22873 1.47237 7.50373 1.47421C7.29873 1.47443 7.12855 1.30461 7.12833 1.09961C7.12811 0.894609 7.29793 0.724428 7.50293 0.724209C9.63793 0.721928 11.3798 2.46007 11.3821 4.59507C11.3823 4.80007 11.2125 4.97025 11.0075 4.97047Z" fill="black"/>
</svg>
