<svg width="16" height="16" viewBox="0 0 16 16" fill="none" xmlns="http://www.w3.org/2000/svg">
<path d="M8.66684 9.83301H8.00018C7.72684 9.83301 7.50018 9.60634 7.50018 9.33301C7.50018 9.05967 7.72684 8.83301 8.00018 8.83301H8.66684C9.12684 8.83301 9.50018 8.45967 9.50018 7.99967V1.83301H4.00018C3.21351 1.83301 2.49349 2.25966 2.10683 2.94633C1.97349 3.18633 1.66685 3.27302 1.42685 3.13969C1.18685 3.00636 1.10016 2.69968 1.23349 2.45968C1.79349 1.45968 2.85351 0.833008 4.00018 0.833008H10.0002C10.2735 0.833008 10.5002 1.05967 10.5002 1.33301V7.99967C10.5002 9.01301 9.68018 9.83301 8.66684 9.83301Z" fill="#292D32"/>
<path d="M12.6663 13.833H11.9997C11.7263 13.833 11.4997 13.6063 11.4997 13.333C11.4997 12.873 11.1263 12.4997 10.6663 12.4997C10.2063 12.4997 9.83301 12.873 9.83301 13.333C9.83301 13.6063 9.60634 13.833 9.33301 13.833H6.66634C6.39301 13.833 6.16634 13.6063 6.16634 13.333C6.16634 12.873 5.79301 12.4997 5.33301 12.4997C4.87301 12.4997 4.49967 12.873 4.49967 13.333C4.49967 13.6063 4.27301 13.833 3.99967 13.833H3.33301C1.95301 13.833 0.833008 12.713 0.833008 11.333C0.833008 11.0597 1.05967 10.833 1.33301 10.833C1.60634 10.833 1.83301 11.0597 1.83301 11.333C1.83301 12.1597 2.50634 12.833 3.33301 12.833H3.56632C3.78632 12.0663 4.49301 11.4997 5.33301 11.4997C6.17301 11.4997 6.87969 12.0663 7.09969 12.833H8.90633C9.12633 12.0663 9.83301 11.4997 10.673 11.4997C11.513 11.4997 12.2197 12.0663 12.4397 12.833H12.6663C13.493 12.833 14.1663 12.1597 14.1663 11.333V9.83301H12.6663C12.0263 9.83301 11.4997 9.30634 11.4997 8.66634V6.66634C11.4997 6.02634 12.0197 5.49967 12.6663 5.49967L11.953 4.25301C11.8063 3.99301 11.5264 3.83301 11.2264 3.83301H10.4997V7.99967C10.4997 9.01301 9.67967 9.83301 8.66634 9.83301H7.99967C7.72634 9.83301 7.49967 9.60634 7.49967 9.33301C7.49967 9.05967 7.72634 8.83301 7.99967 8.83301H8.66634C9.12634 8.83301 9.49967 8.45967 9.49967 7.99967V3.33301C9.49967 3.05967 9.72634 2.83301 9.99967 2.83301H11.2264C11.8864 2.83301 12.493 3.18635 12.8197 3.75968L13.9597 5.75301C14.0463 5.90634 14.0463 6.09968 13.9597 6.25301C13.873 6.40634 13.7063 6.49967 13.5263 6.49967H12.6663C12.573 6.49967 12.4997 6.57301 12.4997 6.66634V8.66634C12.4997 8.75967 12.573 8.83301 12.6663 8.83301H14.6663C14.9397 8.83301 15.1663 9.05967 15.1663 9.33301V11.333C15.1663 12.713 14.0463 13.833 12.6663 13.833Z" fill="#292D32"/>
<path d="M5.33333 15.1667C4.32 15.1667 3.5 14.3467 3.5 13.3333C3.5 12.32 4.32 11.5 5.33333 11.5C6.34667 11.5 7.16667 12.32 7.16667 13.3333C7.16667 14.3467 6.34667 15.1667 5.33333 15.1667ZM5.33333 12.5C4.87333 12.5 4.5 12.8733 4.5 13.3333C4.5 13.7933 4.87333 14.1667 5.33333 14.1667C5.79333 14.1667 6.16667 13.7933 6.16667 13.3333C6.16667 12.8733 5.79333 12.5 5.33333 12.5Z" fill="#292D32"/>
<path d="M10.6663 15.1667C9.65301 15.1667 8.83301 14.3467 8.83301 13.3333C8.83301 12.32 9.65301 11.5 10.6663 11.5C11.6797 11.5 12.4997 12.32 12.4997 13.3333C12.4997 14.3467 11.6797 15.1667 10.6663 15.1667ZM10.6663 12.5C10.2063 12.5 9.83301 12.8733 9.83301 13.3333C9.83301 13.7933 10.2063 14.1667 10.6663 14.1667C11.1263 14.1667 11.4997 13.7933 11.4997 13.3333C11.4997 12.8733 11.1263 12.5 10.6663 12.5Z" fill="#292D32"/>
<path d="M14.6667 9.83333H12.6667C12.0267 9.83333 11.5 9.30667 11.5 8.66667V6.66667C11.5 6.02667 12.0267 5.5 12.6667 5.5H13.5267C13.7067 5.5 13.8733 5.59334 13.96 5.75334L15.1 7.75334C15.14 7.82667 15.1667 7.91333 15.1667 8V9.33333C15.1667 9.60667 14.94 9.83333 14.6667 9.83333ZM12.6667 6.5C12.5733 6.5 12.5 6.57333 12.5 6.66667V8.66667C12.5 8.76 12.5733 8.83333 12.6667 8.83333H14.1667V8.13334L13.2333 6.5H12.6667Z" fill="#292D32"/>
<path d="M5.33301 5.83301H1.33301C1.05967 5.83301 0.833008 5.60634 0.833008 5.33301C0.833008 5.05967 1.05967 4.83301 1.33301 4.83301H5.33301C5.60634 4.83301 5.83301 5.05967 5.83301 5.33301C5.83301 5.60634 5.60634 5.83301 5.33301 5.83301Z" fill="#292D32"/>
<path d="M3.99967 7.83301H1.33301C1.05967 7.83301 0.833008 7.60634 0.833008 7.33301C0.833008 7.05967 1.05967 6.83301 1.33301 6.83301H3.99967C4.27301 6.83301 4.49967 7.05967 4.49967 7.33301C4.49967 7.60634 4.27301 7.83301 3.99967 7.83301Z" fill="#292D32"/>
<path d="M2.66634 9.83301H1.33301C1.05967 9.83301 0.833008 9.60634 0.833008 9.33301C0.833008 9.05967 1.05967 8.83301 1.33301 8.83301H2.66634C2.93967 8.83301 3.16634 9.05967 3.16634 9.33301C3.16634 9.60634 2.93967 9.83301 2.66634 9.83301Z" fill="#292D32"/>
</svg>
