<svg width="14" height="14" viewBox="0 0 14 14" fill="none" xmlns="http://www.w3.org/2000/svg">
<path d="M6.99967 7.43783C5.15051 7.43783 3.64551 5.93283 3.64551 4.08366C3.64551 2.23449 5.15051 0.729492 6.99967 0.729492C8.84884 0.729492 10.3538 2.23449 10.3538 4.08366C10.3538 5.93283 8.84884 7.43783 6.99967 7.43783ZM6.99967 1.60449C5.63467 1.60449 4.52051 2.71866 4.52051 4.08366C4.52051 5.44866 5.63467 6.56283 6.99967 6.56283C8.36467 6.56283 9.47884 5.44866 9.47884 4.08366C9.47884 2.71866 8.36467 1.60449 6.99967 1.60449Z" fill="white"/>
<path d="M9.22841 13.271C9.00674 13.271 8.79674 13.1893 8.64507 13.0376C8.46424 12.8568 8.38257 12.5943 8.4234 12.3201L8.53424 11.5326C8.56341 11.3285 8.68591 11.0893 8.83175 10.9376L10.8967 8.87264C11.7251 8.04431 12.4542 8.51681 12.8101 8.87264C13.1134 9.17598 13.2709 9.50262 13.2709 9.82928C13.2709 10.1618 13.1192 10.471 12.8101 10.7801L10.7451 12.8451C10.5992 12.991 10.3543 13.1135 10.1501 13.1426L9.36256 13.2534C9.3159 13.2651 9.27507 13.271 9.22841 13.271ZM11.8476 9.28679C11.7426 9.28679 11.6492 9.35681 11.5151 9.49098L9.45008 11.556C9.43258 11.5735 9.4034 11.6318 9.4034 11.6551L9.2984 12.3843L10.0276 12.2793C10.0509 12.2735 10.1092 12.2443 10.1267 12.2268L12.1918 10.1618C12.2851 10.0685 12.3959 9.93428 12.3959 9.82928C12.3959 9.74178 12.3259 9.61931 12.1918 9.49098C12.0518 9.35098 11.9467 9.28679 11.8476 9.28679Z" fill="white"/>
<path d="M12.2037 11.2115C12.1628 11.2115 12.122 11.2056 12.087 11.194C11.317 10.9781 10.7045 10.3656 10.4887 9.59564C10.4245 9.36231 10.5587 9.12315 10.792 9.05899C11.0254 8.99482 11.2645 9.12896 11.3287 9.3623C11.4628 9.84063 11.842 10.2198 12.3203 10.354C12.5537 10.4181 12.6879 10.6631 12.6237 10.8906C12.5712 11.0831 12.3962 11.2115 12.2037 11.2115Z" fill="white"/>
<path d="M1.98926 13.2708C1.75009 13.2708 1.55176 13.0725 1.55176 12.8333C1.55176 10.3425 3.99594 8.3125 7.00011 8.3125C7.63594 8.3125 8.26594 8.40585 8.8551 8.58085C9.08844 8.65085 9.21677 8.89584 9.14677 9.12334C9.07677 9.35668 8.83177 9.48501 8.60427 9.41501C8.09094 9.26334 7.55427 9.18166 7.00011 9.18166C4.48011 9.18166 2.42676 10.815 2.42676 12.8275C2.42676 13.0725 2.22842 13.2708 1.98926 13.2708Z" fill="white"/>
</svg>
