<svg width="13" height="13" viewBox="0 0 13 13" fill="none" xmlns="http://www.w3.org/2000/svg">
<path d="M8.5166 10.6787H3.5166C1.6916 10.6787 0.641602 9.62871 0.641602 7.80371V4.30371C0.641602 2.47871 1.6916 1.42871 3.5166 1.42871H8.5166C10.3416 1.42871 11.3916 2.47871 11.3916 4.30371V7.80371C11.3916 9.62871 10.3416 10.6787 8.5166 10.6787ZM3.5166 2.17871C2.0866 2.17871 1.3916 2.87371 1.3916 4.30371V7.80371C1.3916 9.23371 2.0866 9.92871 3.5166 9.92871H8.5166C9.9466 9.92871 10.6416 9.23371 10.6416 7.80371V4.30371C10.6416 2.87371 9.9466 2.17871 8.5166 2.17871H3.5166Z" fill="black"/>
<path d="M6.01698 6.48869C5.59698 6.48869 5.17198 6.3587 4.84698 6.0937L3.28198 4.8437C3.12198 4.7137 3.09198 4.4787 3.22198 4.3187C3.35198 4.1587 3.58698 4.1287 3.74698 4.2587L5.31198 5.5087C5.69198 5.8137 6.33698 5.8137 6.71698 5.5087L8.28198 4.2587C8.44198 4.1287 8.68198 4.1537 8.80698 4.3187C8.93698 4.4787 8.91198 4.7187 8.74698 4.8437L7.18198 6.0937C6.86198 6.3587 6.43698 6.48869 6.01698 6.48869Z" fill="black"/>
</svg>
