<svg width="20" height="20" viewBox="0 0 20 20" fill="none" xmlns="http://www.w3.org/2000/svg">
<path d="M12.7001 18.5581H12.5918C8.89176 18.5581 7.10843 17.0997 6.80009 13.8331C6.76676 13.4914 7.01676 13.1831 7.36676 13.1497C7.70843 13.1164 8.01676 13.3747 8.05009 13.7164C8.29176 16.3331 9.52509 17.3081 12.6001 17.3081H12.7084C16.1001 17.3081 17.3001 16.1081 17.3001 12.7164V7.28307C17.3001 3.89141 16.1001 2.69141 12.7084 2.69141H12.6001C9.50843 2.69141 8.27509 3.68307 8.05009 6.34974C8.00843 6.69141 7.72509 6.94974 7.36676 6.91641C7.01676 6.89141 6.76676 6.58307 6.79176 6.24141C7.07509 2.92474 8.86676 1.44141 12.5918 1.44141H12.7001C16.7918 1.44141 18.5418 3.19141 18.5418 7.28307V12.7164C18.5418 16.8081 16.7918 18.5581 12.7001 18.5581Z" fill="#EB2B1A"/>
<path d="M12.4003 10.625H1.66699C1.32533 10.625 1.04199 10.3417 1.04199 10C1.04199 9.65833 1.32533 9.375 1.66699 9.375H12.4003C12.742 9.375 13.0253 9.65833 13.0253 10C13.0253 10.3417 12.7503 10.625 12.4003 10.625Z" fill="#EB2B1A"/>
<path d="M10.5419 13.4162C10.3835 13.4162 10.2252 13.3579 10.1002 13.2329C9.85853 12.9912 9.85853 12.5912 10.1002 12.3495L12.4502 9.99954L10.1002 7.64954C9.85853 7.40788 9.85853 7.00788 10.1002 6.76621C10.3419 6.52454 10.7419 6.52454 10.9835 6.76621L13.7752 9.55788C14.0169 9.79954 14.0169 10.1995 13.7752 10.4412L10.9835 13.2329C10.8585 13.3579 10.7002 13.4162 10.5419 13.4162Z" fill="#EB2B1A"/>
</svg>
