<svg width="20" height="20" viewBox="0 0 20 20" fill="none" xmlns="http://www.w3.org/2000/svg">
<path d="M10.8753 13.5419H9.30867C8.20034 13.5419 7.29199 12.6085 7.29199 11.4585C7.29199 11.1169 7.57533 10.8335 7.91699 10.8335C8.25866 10.8335 8.54199 11.1169 8.54199 11.4585C8.54199 11.9169 8.88367 12.2919 9.30867 12.2919H10.8753C11.2003 12.2919 11.4587 12.0002 11.4587 11.6419C11.4587 11.1919 11.3337 11.1252 11.0503 11.0252L8.54199 10.1502C8.00866 9.96685 7.29199 9.57519 7.29199 8.35019C7.29199 7.30853 8.117 6.4502 9.12534 6.4502H10.692C11.8003 6.4502 12.7087 7.38353 12.7087 8.53353C12.7087 8.8752 12.4253 9.15853 12.0837 9.15853C11.742 9.15853 11.4587 8.8752 11.4587 8.53353C11.4587 8.0752 11.117 7.7002 10.692 7.7002H9.12534C8.80034 7.7002 8.54199 7.99186 8.54199 8.35019C8.54199 8.80019 8.66698 8.86685 8.95032 8.96685L11.4587 9.84186C11.992 10.0252 12.7087 10.4169 12.7087 11.6419C12.7087 12.6919 11.8836 13.5419 10.8753 13.5419Z" fill="black"/>
<path d="M10 14.375C9.65833 14.375 9.375 14.0917 9.375 13.75V6.25C9.375 5.90833 9.65833 5.625 10 5.625C10.3417 5.625 10.625 5.90833 10.625 6.25V13.75C10.625 14.0917 10.3417 14.375 10 14.375Z" fill="black"/>
<path d="M10.0003 18.9587C5.05866 18.9587 1.04199 14.942 1.04199 10.0003C1.04199 5.05866 5.05866 1.04199 10.0003 1.04199C10.342 1.04199 10.6253 1.32533 10.6253 1.66699C10.6253 2.00866 10.342 2.29199 10.0003 2.29199C5.75033 2.29199 2.29199 5.75033 2.29199 10.0003C2.29199 14.2503 5.75033 17.7087 10.0003 17.7087C14.2503 17.7087 17.7087 14.2503 17.7087 10.0003C17.7087 9.65866 17.992 9.37533 18.3337 9.37533C18.6753 9.37533 18.9587 9.65866 18.9587 10.0003C18.9587 14.942 14.942 18.9587 10.0003 18.9587Z" fill="black"/>
<path d="M17.5003 6.45833H14.167C13.8253 6.45833 13.542 6.175 13.542 5.83333V2.5C13.542 2.15833 13.8253 1.875 14.167 1.875C14.5087 1.875 14.792 2.15833 14.792 2.5V5.20833H17.5003C17.842 5.20833 18.1253 5.49167 18.1253 5.83333C18.1253 6.175 17.842 6.45833 17.5003 6.45833Z" fill="black"/>
<path d="M14.1669 6.45853C14.0085 6.45853 13.8502 6.40019 13.7252 6.27519C13.4835 6.03353 13.4835 5.63353 13.7252 5.39186L17.8919 1.2252C18.1335 0.983529 18.5335 0.983529 18.7752 1.2252C19.0169 1.46686 19.0169 1.86686 18.7752 2.10853L14.6085 6.27519C14.4835 6.40019 14.3252 6.45853 14.1669 6.45853Z" fill="black"/>
</svg>
