<svg width="16" height="16" viewBox="0 0 16 16" fill="none" xmlns="http://www.w3.org/2000/svg">
<path d="M7.99967 15.2063C7.53967 15.2063 7.10634 14.973 6.79967 14.5663L5.79967 13.233C5.77967 13.2063 5.69967 13.1663 5.65967 13.1663H5.33301C2.55301 13.1663 0.833008 12.413 0.833008 8.66634V5.33301C0.833008 2.38634 2.38634 0.833008 5.33301 0.833008H9.33301C9.60634 0.833008 9.83301 1.05967 9.83301 1.33301C9.83301 1.60634 9.60634 1.83301 9.33301 1.83301H5.33301C2.94634 1.83301 1.83301 2.94634 1.83301 5.33301V8.66634C1.83301 11.6797 2.86634 12.1663 5.33301 12.1663H5.66634C6.00634 12.1663 6.39301 12.3597 6.59967 12.633L7.59967 13.9663C7.83301 14.273 8.16634 14.273 8.39967 13.9663L9.39967 12.633C9.61967 12.3397 9.96634 12.1663 10.333 12.1663H10.6663C13.053 12.1663 14.1663 11.053 14.1663 8.66634V6.66634C14.1663 6.39301 14.393 6.16634 14.6663 6.16634C14.9397 6.16634 15.1663 6.39301 15.1663 6.66634V8.66634C15.1663 11.613 13.613 13.1663 10.6663 13.1663H10.333C10.2797 13.1663 10.233 13.193 10.1997 13.233L9.19967 14.5663C8.89301 14.973 8.45967 15.2063 7.99967 15.2063Z" fill="#292D32"/>
<path d="M7.99967 8.00033C7.62634 8.00033 7.33301 7.70033 7.33301 7.33366C7.33301 6.96699 7.63301 6.66699 7.99967 6.66699C8.36634 6.66699 8.66634 6.96699 8.66634 7.33366C8.66634 7.70033 8.37301 8.00033 7.99967 8.00033Z" fill="#292D32"/>
<path d="M10.6667 8.00033C10.2933 8.00033 10 7.70033 10 7.33366C10 6.96699 10.3 6.66699 10.6667 6.66699C11.0333 6.66699 11.3333 6.96699 11.3333 7.33366C11.3333 7.70033 11.04 8.00033 10.6667 8.00033Z" fill="#292D32"/>
<path d="M5.33366 8.00033C4.96033 8.00033 4.66699 7.70033 4.66699 7.33366C4.66699 6.96699 4.96699 6.66699 5.33366 6.66699C5.70033 6.66699 6.00033 6.96699 6.00033 7.33366C6.00033 7.70033 5.70699 8.00033 5.33366 8.00033Z" fill="#292D32"/>
<path d="M12.9997 5.16634C11.8063 5.16634 10.833 4.19301 10.833 2.99967C10.833 1.80634 11.8063 0.833008 12.9997 0.833008C14.193 0.833008 15.1663 1.80634 15.1663 2.99967C15.1663 4.19301 14.193 5.16634 12.9997 5.16634ZM12.9997 1.83301C12.3597 1.83301 11.833 2.35967 11.833 2.99967C11.833 3.63967 12.3597 4.16634 12.9997 4.16634C13.6397 4.16634 14.1663 3.63967 14.1663 2.99967C14.1663 2.35967 13.6397 1.83301 12.9997 1.83301Z" fill="#292D32"/>
</svg>
