<svg width="18" height="18" viewBox="0 0 18 18" fill="none" xmlns="http://www.w3.org/2000/svg">
<path d="M9 17.0625C13.4475 17.0625 17.0625 13.4475 17.0625 9C17.0625 4.5525 13.4475 0.9375 9 0.9375C4.5525 0.9375 0.9375 4.5525 0.9375 9C0.9375 13.4475 4.5525 17.0625 9 17.0625ZM9 2.0625C12.825 2.0625 15.9375 5.175 15.9375 9C15.9375 12.825 12.825 15.9375 9 15.9375C5.175 15.9375 2.0625 12.825 2.0625 9C2.0625 5.175 5.175 2.0625 9 2.0625Z" fill="black"/>
<path d="M6.375 9.5625H10.875C11.1825 9.5625 11.4375 9.3075 11.4375 9C11.4375 8.6925 11.1825 8.4375 10.875 8.4375H6.375C6.0675 8.4375 5.8125 8.6925 5.8125 9C5.8125 9.3075 6.0675 9.5625 6.375 9.5625Z" fill="black"/>
<path d="M9.37492 11.8126C9.51742 11.8126 9.65992 11.7601 9.77242 11.6476L12.0224 9.39758C12.2399 9.18008 12.2399 8.82008 12.0224 8.60258L9.77242 6.35258C9.55492 6.13508 9.19492 6.13508 8.97742 6.35258C8.75992 6.57008 8.75992 6.93008 8.97742 7.14758L10.8299 9.00008L8.97742 10.8526C8.75992 11.0701 8.75992 11.4301 8.97742 11.6476C9.08992 11.7601 9.23242 11.8126 9.37492 11.8126Z" fill="black"/>
</svg>
